<?xml version="1.0"?><svg fill="#fd4145" xmlns="http://www.w3.org/2000/svg"  viewBox="0 0 24 24" width="24px" height="24px">    <path d="M 7.5683594 0.84765625 L 2.9941406 1.7636719 L 0.99414062 2.1621094 L 0.99414062 3.2480469 L 0.99414062 21.982422 L 1.9941406 21.982422 C 4.3011406 21.982422 6.9941406 21.196422 6.9941406 18.982422 L 6.9941406 13.746094 L 9.4140625 17.982422 L 12.28125 17.982422 L 14.585938 17.982422 L 15.123047 17.037109 L 16.994141 13.761719 L 16.994141 19.982422 L 17.994141 21.982422 L 22.994141 21.982422 L 22.994141 3.25 L 22.994141 1.9824219 L 20.994141 1.9824219 L 16.376953 1.9824219 L 12.095703 10.546875 L 7.5683594 0.84765625 z M 6.421875 3.1171875 L 12.425781 15.982422 L 10.574219 15.982422 L 3.5527344 3.6914062 L 6.421875 3.1171875 z M 17.613281 3.9824219 L 20.271484 3.9824219 L 14.087891 14.816406 L 13.173828 12.859375 L 17.613281 3.9824219 z M 2.9941406 6.7480469 L 4.9941406 10.248047 L 4.9941406 13.974609 L 2.9941406 19.978516 L 2.9941406 6.7480469 z M 20.994141 6.7539062 L 20.994141 19.982422 L 18.994141 19.982422 C 20.270141 13.368422 20.994141 6.7539062 20.994141 6.7539062 z"/></svg>