<svg xmlns="http://www.w3.org/2000/svg" fill="#fd4145" viewBox="0 0 64 80" width="64px" height="80px" x="0px" y="0px"><g><path d="M12,43V57a4,4,0,0,0,4,4H48a4,4,0,0,0,4-4V43a4,4,0,0,0-4-4H16A4,4,0,0,0,12,43Zm2,14V43a2,2,0,0,1,2-2h4V59H16A2,2,0,0,1,14,57ZM50,43V57a2,2,0,0,1-2,2H44V41h4A2,2,0,0,1,50,43Zm-8-2V59H22V41Z"/><path d="M47,52a1,1,0,0,0,1-1V49a1,1,0,0,0-2,0v2A1,1,0,0,0,47,52Z"/><path d="M21,19.485a.928.928,0,0,0,.022.14,1.02,1.02,0,0,0,.026.167,1.272,1.272,0,0,0,.058.117,1.059,1.059,0,0,0,.078.154.961.961,0,0,0,.129.134.938.938,0,0,0,.082.085.984.984,0,0,0,.273.147l10,3.514.015,0a.976.976,0,0,0,.649,0l10-3.514a.984.984,0,0,0,.273-.147.938.938,0,0,0,.082-.085.961.961,0,0,0,.129-.134,1.059,1.059,0,0,0,.078-.154,1.272,1.272,0,0,0,.058-.117,1.02,1.02,0,0,0,.026-.167.928.928,0,0,0,.022-.14v-12h0v0a1.006,1.006,0,0,0-.044-.274c-.008-.028-.019-.053-.029-.079a1.047,1.047,0,0,0-.089-.177c-.016-.025-.031-.049-.049-.072a1.026,1.026,0,0,0-.152-.157c-.016-.013-.028-.028-.045-.04l-.014-.013a.988.988,0,0,0-.235-.121l-.014-.007-10-3.485a.99.99,0,0,0-.658,0l-10,3.485-.013.007a.976.976,0,0,0-.236.121l-.014.013c-.017.012-.029.027-.045.04a1.026,1.026,0,0,0-.152.157c-.018.023-.033.047-.049.072a1.047,1.047,0,0,0-.089.177c-.01.026-.021.051-.029.079A1.006,1.006,0,0,0,21,7.481v0h0Zm12-2.078,5.973,2.082L33,21.589Zm0-5.7,5.777-2.031L41,8.9v9.181l-8-2.789Zm-2,0v3.581l-8,2.789V8.9Zm0,5.7v4.182l-5.973-2.1ZM32,5.059l6.973,2.43-.82.289L32,9.94,25.027,7.489Z"/><rect x="20" y="24" width="2" height="2"/><rect x="24" y="28" width="2" height="2"/><rect x="28" y="31" width="2" height="2"/><rect x="31" y="35" width="2" height="2"/><rect x="31" y="27" width="2" height="2"/><rect x="34" y="31" width="2" height="2"/><rect x="38" y="28" width="2" height="2"/><rect x="42" y="24" width="2" height="2"/><rect x="16" y="45" width="2" height="2"/><rect x="16" y="49" width="2" height="2"/><rect x="16" y="53" width="2" height="2"/><path d="M37.959,46.728a.734.734,0,0,0-.032-.082,1.01,1.01,0,0,0-.079-.166q-.027-.042-.057-.081a1.032,1.032,0,0,0-.118-.129A.945.945,0,0,0,37.6,46.2c-.013-.01-.023-.023-.036-.032a1.023,1.023,0,0,0-.132-.067c-.021-.01-.036-.025-.057-.034l-5-2a1.007,1.007,0,0,0-.744,0l-5,2c-.021.009-.036.024-.057.034a1.023,1.023,0,0,0-.132.067c-.013.009-.023.022-.036.032a.945.945,0,0,0-.076.066,1.032,1.032,0,0,0-.118.129q-.03.039-.057.081a1.01,1.01,0,0,0-.079.166.734.734,0,0,0-.032.082A.984.984,0,0,0,26,47v6a1,1,0,0,0,.628.929l5,2A1,1,0,0,0,32,56a.986.986,0,0,0,.335-.064c.012-.005.025,0,.037-.007l5-2A1,1,0,0,0,38,53V47A.984.984,0,0,0,37.959,46.728ZM32,46.077,34.307,47,32,47.923,29.693,47Zm-4,2.4,3,1.2v3.846l-3-1.2Zm5,5.046V49.677l3-1.2v3.846Z"/></g></svg>